<?xml version="1.0" encoding="UTF-8" standalone="no"?>
<svg
   xmlns:dc="http://purl.org/dc/elements/1.1/"
   xmlns:cc="http://creativecommons.org/ns#"
   xmlns:rdf="http://www.w3.org/1999/02/22-rdf-syntax-ns#"
   xmlns:svg="http://www.w3.org/2000/svg"
   xmlns="http://www.w3.org/2000/svg"
   xmlns:sodipodi="http://sodipodi.sourceforge.net/DTD/sodipodi-0.dtd"
   xmlns:inkscape="http://www.inkscape.org/namespaces/inkscape"
   width="580"
   height="400"
   version="1.1"
   id="svg24"
   sodipodi:docname="method-draw-image.svg"
   inkscape:version="0.92.4 5da689c313, 2019-01-14">
  <metadata
     id="metadata30">
    <rdf:RDF>
      <cc:Work
         rdf:about="">
        <dc:format>image/svg+xml</dc:format>
        <dc:type
           rdf:resource="http://purl.org/dc/dcmitype/StillImage" />
        <dc:title></dc:title>
      </cc:Work>
    </rdf:RDF>
  </metadata>
  <defs
     id="defs28" />
  <sodipodi:namedview
     pagecolor="#ffffff"
     bordercolor="#666666"
     borderopacity="1"
     objecttolerance="10"
     gridtolerance="10"
     guidetolerance="10"
     inkscape:pageopacity="0"
     inkscape:pageshadow="2"
     inkscape:window-width="1366"
     inkscape:window-height="713"
     id="namedview26"
     showgrid="false"
     inkscape:zoom="0.93161318"
     inkscape:cx="140.05783"
     inkscape:cy="213.22608"
     inkscape:window-x="0"
     inkscape:window-y="27"
     inkscape:window-maximized="1"
     inkscape:current-layer="g22" />
  <!-- Created with Method Draw - http://github.com/duopixel/Method-Draw/ -->
  <g
     id="g22"
     transform="translate(1.0734069,-13.954289)">
    <title
       id="title18">Layer 1</title>
    <g
       id="g32"
       transform="matrix(0.99304041,0,0,0.80636229,62.3673,34.139604)">
      <path
         style="fill:#c6c7c8;stroke-width:0.90021843"
         d="M 157.2231,353.04216 C 104.87417,348.10565 81.477794,334.22476 45.6795,286.86421 25.74671,260.49346 14.74249,243.96768 16.045127,242.36027 c 0.293565,-0.36225 1.695244,0.401 3.114842,1.69612 27.755249,25.32146 62.623424,43.25955 97.482551,50.15035 10.21758,2.01976 39.41391,1.73737 50.14521,-0.48501 30.36103,-6.28757 60.15145,-22.77229 86.00085,-47.58912 28.99832,-27.83996 60.11344,-47.43768 91.36832,-57.54795 20.55343,-6.64858 29.2359,-7.95044 53.28688,-7.98988 17.02361,-0.0279 23.32334,0.34063 30.38975,1.77788 12.30327,2.50239 27.62719,7.20525 36.40166,11.17155 13.56697,6.13264 16.2187,8.02277 12.45768,8.87973 -1.0211,0.23266 -6.23266,1.40398 -11.58125,2.60294 -17.78563,3.98688 -43.13038,15.88399 -62.60624,29.38806 -11.2387,7.79263 -24.88901,19.05552 -39.50331,32.59423 -50.90817,47.16139 -99.30879,74.77119 -148.45413,84.6846 -9.25746,1.86739 -43.3238,2.66869 -57.32484,1.34839 z M 82.605999,229.47365 C 62.167249,226.96182 48.750621,223.68203 33.982403,217.58728 15.068534,209.78164 11.76622,206.95769 20.00312,205.63297 42.126388,202.07495 69.412732,189.93536 93.267354,173.038 106.218,163.86444 113.54597,157.80816 129.72898,142.90392 c 40.55881,-37.35388 77.3526,-61.722212 114.32998,-75.720126 28.78861,-10.898029 52.59824,-14.391013 83.2858,-12.218421 64.87946,4.593281 87.17807,18.492441 133.52723,83.230127 14.73579,20.58206 19.57997,28.86406 16.8827,28.86406 -0.40062,0 -5.05026,-3.5606 -10.33251,-7.91244 -29.1781,-24.03866 -61.56552,-39.30956 -93.4798,-44.07638 -10.87839,-1.62482 -32.7704,-1.41303 -43.19806,0.41792 -33.88347,5.94945 -58.87549,20.05695 -96.34901,54.38707 -34.34558,31.46457 -72.51573,51.35814 -110.8405,57.76801 -8.47875,1.41809 -34.747787,2.59199 -40.948811,1.82991 z"
         id="path36"
         inkscape:connector-curvature="0" />
      <path
         style="fill:#fdda04;stroke-width:0.90021843"
         d="m 77.743639,228.02465 c -10.173506,-1.26864 -21.336933,-3.65139 -30.389747,-6.48647 -13.119691,-4.1087 -29.98455,-11.73355 -29.98455,-13.55645 0,-0.45735 1.367538,-1.10367 3.038974,-1.43628 18.751591,-3.73141 33.897786,-9.41274 52.472964,-19.68256 18.531133,-10.24547 34.396,-22.23985 57.9659,-43.82419 68.04323,-62.311194 127.88164,-90.249281 187.58326,-87.581173 53.58479,2.394742 78.08383,11.16513 104.7636,37.504201 15.65942,15.459452 55.59615,69.052232 53.43979,71.713112 -0.25612,0.31604 -4.59444,-2.79883 -9.64072,-6.92195 -29.11358,-23.7876 -61.09499,-38.79317 -93.02948,-43.64912 -9.95843,-1.51428 -32.52687,-1.28006 -43.13319,0.44764 -32.75414,5.33545 -59.78177,20.42051 -95.21004,53.14005 -34.36951,31.74173 -71.01792,51.38367 -109.08037,58.46229 -12.35921,2.29849 -37.60516,3.26644 -48.796391,1.8709 z"
         id="path34"
         inkscape:connector-curvature="0" />
    </g>
    <text
       transform="matrix(2.8710043,0,0,6.5,-253.52109,-995.5)"
       xml:space="preserve"
       font-size="24"
       id="svg_2"
       y="192.61539"
       x="118.78111"
       style="font-size:24px;font-family:Simonetta, serif;text-anchor:start;fill:#930000;stroke:#000000;stroke-width:0">CAPSULEFY</text>
  </g>
</svg>
