<?xml version="1.0" standalone="no"?><!-- Generator: Gravit.io --><svg xmlns="http://www.w3.org/2000/svg" xmlns:xlink="http://www.w3.org/1999/xlink" style="isolation:isolate" viewBox="0 0 370 531" width="370" height="531"><defs><clipPath id="_clipPath_cGeGjyWIhj0cSKemvPUIhMihNHoEsAtX"><rect width="370" height="531"/></clipPath></defs><g clip-path="url(#_clipPath_cGeGjyWIhj0cSKemvPUIhMihNHoEsAtX)"><g><rect x="13.443" y="0" width="342.633" height="252.995" transform="matrix(1,0,0,1,0,0)" fill="rgb(127,174,219)"/></g><rect x="13.443" y="0" width="342.633" height="56.865" transform="matrix(1,0,0,1,0,0)" fill="rgb(255,255,255)"/><rect x="13.443" y="252.995" width="342.633" height="278.005" transform="matrix(1,0,0,1,0,0)" fill="rgb(127,174,219)"/><g transform="matrix(0.334,0,0,0.334,101.513,369.442)"><text transform="matrix(1,0,0,1,95.54,71.232)" style="font-family:'Paytone One';font-weight:400;font-size:64px;font-style:normal;font-variant-ligatures:none;fill:#000000;stroke:none;">June XX</text><text transform="matrix(1,0,0,1,12.052,160.576)" style="font-family:'Paytone One';font-weight:400;font-size:64px;font-style:normal;font-variant-ligatures:none;fill:#000000;stroke:none;">XX:XX - XX:XX</text><text transform="matrix(1,0,0,1,12.052,249.92)" style="font-family:'Paytone One';font-weight:400;font-size:64px;font-style:normal;font-variant-ligatures:none;fill:#000000;stroke:none;">XX:XX - XX:XX</text></g><g transform="matrix(0.334,0,0,0.334,144.593,448.83)"><text transform="matrix(1,0,0,1,0,126)" style="font-family:'Quicksand';font-weight:400;font-size:36px;font-style:normal;font-variant-ligatures:none;fill:#000000;stroke:none;">ETSII Assembly Hall</text><text transform="matrix(1,0,0,1,0,171)" style="font-family:'Quicksand';font-weight:400;font-size:36px;font-style:normal;font-variant-ligatures:none;fill:#000000;stroke:none;">Av. Reina Mercedes s/n, 41012 Seville.</text><text transform="matrix(1,0,0,1,0,216)" style="font-family:'Quicksand';font-weight:400;font-size:36px;font-style:normal;font-variant-ligatures:none;fill:#000000;stroke:none;">contact@email.com</text></g><g transform="matrix(0.598,0,0,0.598,13.668,8.645)"><text transform="matrix(1,0,0,1,0,180.648)" style="font-family:'Paytone One';font-weight:400;font-size:72px;font-style:normal;fill:#fee35b;stroke:none;">ISPP DAYS </text><text transform="matrix(1,0,0,1,0,281.16)" style="font-family:'Paytone One';font-weight:400;font-size:72px;font-style:normal;fill:#fee35b;stroke:none;">2019</text></g><path d=" M 275.373 141.832 L 181.443 141.832 C 180.986 141.832 180.627 142.191 180.627 142.648 L 180.627 203.505 C 180.627 203.962 180.986 204.321 181.443 204.321 L 275.405 204.321 C 275.862 204.321 276.221 203.962 276.221 203.505 L 276.221 142.648 C 276.189 142.223 275.83 141.832 275.373 141.832 Z  M 274.556 202.688 L 182.259 202.688 L 182.259 143.464 L 274.556 143.464 L 274.556 202.688 Z  M 297.443 207.553 L 286.8 207.553 L 286.8 136.575 C 286.8 135.433 285.885 134.518 284.743 134.518 L 172.04 134.518 C 170.898 134.518 169.983 135.433 169.983 136.575 L 169.983 207.553 L 159.34 207.553 C 158.197 207.553 157.283 208.467 157.283 209.61 L 157.283 220.71 C 157.283 221.853 158.197 222.767 159.34 222.767 L 297.443 222.767 C 298.586 222.767 299.5 221.853 299.5 220.71 L 299.5 209.61 C 299.5 208.467 298.586 207.553 297.443 207.553 L 297.443 207.553 Z  M 174.064 138.632 L 282.718 138.632 L 282.718 207.586 L 174.064 207.586 L 174.064 138.632 Z  M 295.419 218.653 L 161.397 218.653 L 161.397 211.634 L 295.419 211.634 L 295.419 218.653 Z  M 276.058 213.528 L 273.805 213.528 C 273.512 213.528 273.316 213.756 273.316 214.017 L 273.316 216.27 C 273.316 216.564 273.544 216.76 273.805 216.76 L 276.058 216.76 C 276.352 216.76 276.548 216.531 276.548 216.27 L 276.548 214.017 C 276.548 213.756 276.319 213.528 276.058 213.528 Z  M 284.286 213.528 L 282.033 213.528 C 281.739 213.528 281.543 213.756 281.543 214.017 L 281.543 216.27 C 281.543 216.564 281.772 216.76 282.033 216.76 L 284.286 216.76 C 284.579 216.76 284.775 216.531 284.775 216.27 L 284.775 214.017 C 284.775 213.756 284.547 213.528 284.286 213.528 Z  M 267.896 213.528 L 241.973 213.528 C 241.679 213.528 241.483 213.756 241.483 214.017 L 241.483 216.27 C 241.483 216.564 241.712 216.76 241.973 216.76 L 267.896 216.76 C 268.19 216.76 268.386 216.531 268.386 216.27 L 268.386 214.017 C 268.386 213.756 268.157 213.528 267.896 213.528 L 267.896 213.528 Z " fill="rgb(255,255,255)"/><path d=" M 232.41 186.875 L 224.373 186.875 C 223.819 186.875 223.369 187.325 223.369 187.88 C 223.369 188.434 223.819 188.884 224.373 188.884 L 232.41 188.884 C 232.964 188.884 233.414 188.434 233.414 187.88 C 233.414 187.325 232.964 186.875 232.41 186.875 Z  M 232.41 190.893 L 224.373 190.893 C 223.819 190.893 223.369 191.343 223.369 191.898 C 223.369 192.453 223.819 192.903 224.373 192.903 L 232.41 192.903 C 232.964 192.903 233.414 192.453 233.414 191.898 C 233.414 191.343 232.964 190.893 232.41 190.893 Z  M 232.912 194.912 L 223.871 194.912 L 226.258 196.483 C 226.567 196.76 227.021 196.921 227.493 196.921 L 229.292 196.921 C 229.762 196.921 230.218 196.76 230.527 196.483 L 232.912 194.912 Z  M 240.446 167.187 C 240.446 174.358 233.989 179.208 233.989 184.866 L 229.993 184.866 C 229.987 181.133 231.741 178.057 233.451 175.087 C 234.98 172.425 236.428 169.91 236.428 167.187 C 236.428 161.98 232.259 159.609 228.385 159.609 C 224.518 159.609 220.355 161.98 220.355 167.187 C 220.355 169.91 221.803 172.425 223.332 175.087 C 225.042 178.057 226.798 181.133 226.788 184.866 L 222.794 184.866 C 222.794 179.208 216.336 174.358 216.336 167.187 C 216.336 159.707 222.36 155.59 228.385 155.59 C 234.415 155.59 240.446 159.711 240.446 167.187 Z  M 248.483 165.799 L 248.483 168.556 L 243.384 168.556 C 243.424 168.107 243.46 167.655 243.46 167.187 C 243.46 166.711 243.426 166.255 243.39 165.801 L 248.483 165.801 L 248.483 165.799 Z  M 227.09 152.633 L 227.09 148.701 L 229.844 148.701 L 229.844 152.647 C 229.358 152.603 228.872 152.577 228.385 152.577 C 227.953 152.577 227.521 152.597 227.09 152.633 Z  M 219.569 155.233 L 217.48 151.335 L 219.907 150.033 L 221.99 153.917 C 221.15 154.28 220.339 154.722 219.569 155.233 Z  M 240.838 158.719 L 244.74 155.918 L 246.345 158.158 L 242.219 161.118 C 241.835 160.254 241.369 159.456 240.838 158.719 Z  M 234.791 153.919 L 236.876 150.033 L 239.303 151.335 L 237.212 155.235 C 236.444 154.724 235.632 154.284 234.791 153.919 Z  M 214.562 161.118 L 210.436 158.16 L 212.041 155.92 L 215.943 158.719 C 215.412 159.454 214.948 160.252 214.562 161.118 Z  M 242.102 173.621 L 246.832 175.537 L 245.799 178.091 L 240.927 176.118 C 241.349 175.32 241.746 174.487 242.102 173.621 Z  M 215.766 175.941 L 211.032 178.071 L 209.903 175.557 L 214.605 173.444 C 214.952 174.314 215.35 175.142 215.766 175.941 Z  M 213.399 168.556 L 208.3 168.556 L 208.3 165.799 L 213.393 165.799 C 213.357 166.253 213.323 166.711 213.323 167.187 C 213.323 167.655 213.359 168.107 213.399 168.556 Z " fill="rgb(255,255,255)"/><g transform="matrix(0.422,0,0,0.422,13.443,6.772)"><text transform="matrix(1,0,0,1,66.08,48)" style="font-family:'Quicksand';font-weight:700;font-size:48px;font-style:normal;font-variant-ligatures:none;fill:#7faedb;stroke:none;">ESCUELA TÉCNICA SUPERIOR </text><text transform="matrix(1,0,0,1,69.872,108)" style="font-family:'Quicksand';font-weight:700;font-size:48px;font-style:normal;font-variant-ligatures:none;fill:#7faedb;stroke:none;">DE INGENIERÍA INFORMÁTICA</text></g><g transform="matrix(0.334,0,0,0.334,17.838,234.106)"><text transform="matrix(1,0,0,1,63.511,71.232)" style="font-family:'Paytone One';font-weight:400;font-size:64px;font-style:normal;font-variant-ligatures:none;fill:#000000;stroke:none;">XX New ambitious business </text><text transform="matrix(1,0,0,1,404.023,160.576)" style="font-family:'Paytone One';font-weight:400;font-size:64px;font-style:normal;font-variant-ligatures:none;fill:#000000;stroke:none;">ideas </text><text transform="matrix(1,0,0,1,203.927,249.92)" style="font-family:'Paytone One';font-weight:400;font-size:64px;font-style:normal;font-variant-ligatures:none;fill:#000000;stroke:none;">from our Software </text><text transform="matrix(1,0,0,1,150.871,339.264)" style="font-family:'Paytone One';font-weight:400;font-size:64px;font-style:normal;font-variant-ligatures:none;fill:#000000;stroke:none;">Engineering students</text></g></g></svg>