<?xml version="1.0" standalone="no"?><!-- Generator: Gravit.io --><svg xmlns="http://www.w3.org/2000/svg" xmlns:xlink="http://www.w3.org/1999/xlink" style="isolation:isolate" viewBox="0 0 370 531" width="370" height="531"><defs><clipPath id="_clipPath_BmgtcrMbItiZCvJn1quRUlNvM3Xm0DPg"><rect width="370" height="531"/></clipPath></defs><g clip-path="url(#_clipPath_BmgtcrMbItiZCvJn1quRUlNvM3Xm0DPg)"><g><rect x="-1.557" y="0" width="342.633" height="252.995" transform="matrix(1,0,0,1,0,0)" fill="rgb(127,174,219)"/></g><rect x="-1.557" y="0" width="342.633" height="56.865" transform="matrix(1,0,0,1,0,0)" fill="rgb(255,255,255)"/><rect x="-1.557" y="252.995" width="342.633" height="278.005" transform="matrix(1,0,0,1,0,0)" fill="rgb(127,174,219)"/><g transform="matrix(0.334,0,0,0.334,86.513,369.442)"><text transform="matrix(1,0,0,1,95.54,71.232)" style="font-family:'Paytone One';font-weight:400;font-size:64px;font-style:normal;font-variant-ligatures:none;fill:#000000;stroke:none;">June XX</text><text transform="matrix(1,0,0,1,12.052,160.576)" style="font-family:'Paytone One';font-weight:400;font-size:64px;font-style:normal;font-variant-ligatures:none;fill:#000000;stroke:none;">XX:XX - XX:XX</text><text transform="matrix(1,0,0,1,12.052,249.92)" style="font-family:'Paytone One';font-weight:400;font-size:64px;font-style:normal;font-variant-ligatures:none;fill:#000000;stroke:none;">XX:XX - XX:XX</text></g><g transform="matrix(0.334,0,0,0.334,129.593,448.83)"><text transform="matrix(1,0,0,1,0,126)" style="font-family:'Quicksand';font-weight:400;font-size:36px;font-style:normal;font-variant-ligatures:none;fill:#000000;stroke:none;">ETSII Assembly Hall</text><text transform="matrix(1,0,0,1,0,171)" style="font-family:'Quicksand';font-weight:400;font-size:36px;font-style:normal;font-variant-ligatures:none;fill:#000000;stroke:none;">Av. Reina Mercedes s/n, 41012 Seville.</text><text transform="matrix(1,0,0,1,0,216)" style="font-family:'Quicksand';font-weight:400;font-size:36px;font-style:normal;font-variant-ligatures:none;fill:#000000;stroke:none;">contact@email.com</text></g><g transform="matrix(0.598,0,0,0.598,7.819,8.645)"><text transform="matrix(1,0,0,1,0,180.648)" style="font-family:'Paytone One';font-weight:400;font-size:72px;font-style:normal;fill:#fee35b;stroke:none;">ISPP DAYS </text><text transform="matrix(1,0,0,1,0,281.16)" style="font-family:'Paytone One';font-weight:400;font-size:72px;font-style:normal;fill:#fee35b;stroke:none;">2019</text></g><path d=" M 260.373 141.832 L 166.443 141.832 C 165.986 141.832 165.627 142.191 165.627 142.648 L 165.627 203.505 C 165.627 203.962 165.986 204.321 166.443 204.321 L 260.405 204.321 C 260.862 204.321 261.221 203.962 261.221 203.505 L 261.221 142.648 C 261.189 142.223 260.83 141.832 260.373 141.832 Z  M 259.556 202.688 L 167.259 202.688 L 167.259 143.464 L 259.556 143.464 L 259.556 202.688 Z  M 282.443 207.553 L 271.8 207.553 L 271.8 136.575 C 271.8 135.433 270.885 134.518 269.743 134.518 L 157.04 134.518 C 155.898 134.518 154.983 135.433 154.983 136.575 L 154.983 207.553 L 144.34 207.553 C 143.197 207.553 142.283 208.467 142.283 209.61 L 142.283 220.71 C 142.283 221.853 143.197 222.767 144.34 222.767 L 282.443 222.767 C 283.586 222.767 284.5 221.853 284.5 220.71 L 284.5 209.61 C 284.5 208.467 283.586 207.553 282.443 207.553 L 282.443 207.553 Z  M 159.064 138.632 L 267.718 138.632 L 267.718 207.586 L 159.064 207.586 L 159.064 138.632 Z  M 280.419 218.653 L 146.397 218.653 L 146.397 211.634 L 280.419 211.634 L 280.419 218.653 Z  M 261.058 213.528 L 258.805 213.528 C 258.512 213.528 258.316 213.756 258.316 214.017 L 258.316 216.27 C 258.316 216.564 258.544 216.76 258.805 216.76 L 261.058 216.76 C 261.352 216.76 261.548 216.531 261.548 216.27 L 261.548 214.017 C 261.548 213.756 261.319 213.528 261.058 213.528 Z  M 269.286 213.528 L 267.033 213.528 C 266.739 213.528 266.543 213.756 266.543 214.017 L 266.543 216.27 C 266.543 216.564 266.772 216.76 267.033 216.76 L 269.286 216.76 C 269.579 216.76 269.775 216.531 269.775 216.27 L 269.775 214.017 C 269.775 213.756 269.547 213.528 269.286 213.528 Z  M 252.896 213.528 L 226.973 213.528 C 226.679 213.528 226.483 213.756 226.483 214.017 L 226.483 216.27 C 226.483 216.564 226.712 216.76 226.973 216.76 L 252.896 216.76 C 253.19 216.76 253.386 216.531 253.386 216.27 L 253.386 214.017 C 253.386 213.756 253.157 213.528 252.896 213.528 L 252.896 213.528 Z " fill="rgb(255,255,255)"/><path d=" M 217.41 186.875 L 209.373 186.875 C 208.819 186.875 208.369 187.325 208.369 187.88 C 208.369 188.434 208.819 188.884 209.373 188.884 L 217.41 188.884 C 217.964 188.884 218.414 188.434 218.414 187.88 C 218.414 187.325 217.964 186.875 217.41 186.875 Z  M 217.41 190.893 L 209.373 190.893 C 208.819 190.893 208.369 191.343 208.369 191.898 C 208.369 192.453 208.819 192.903 209.373 192.903 L 217.41 192.903 C 217.964 192.903 218.414 192.453 218.414 191.898 C 218.414 191.343 217.964 190.893 217.41 190.893 Z  M 217.912 194.912 L 208.871 194.912 L 211.258 196.483 C 211.567 196.76 212.021 196.921 212.493 196.921 L 214.292 196.921 C 214.762 196.921 215.218 196.76 215.527 196.483 L 217.912 194.912 Z  M 225.446 167.187 C 225.446 174.358 218.989 179.208 218.989 184.866 L 214.993 184.866 C 214.987 181.133 216.741 178.057 218.451 175.087 C 219.98 172.425 221.428 169.91 221.428 167.187 C 221.428 161.98 217.259 159.609 213.385 159.609 C 209.518 159.609 205.355 161.98 205.355 167.187 C 205.355 169.91 206.803 172.425 208.332 175.087 C 210.042 178.057 211.798 181.133 211.788 184.866 L 207.794 184.866 C 207.794 179.208 201.336 174.358 201.336 167.187 C 201.336 159.707 207.36 155.59 213.385 155.59 C 219.415 155.59 225.446 159.711 225.446 167.187 Z  M 233.483 165.799 L 233.483 168.556 L 228.384 168.556 C 228.424 168.107 228.46 167.655 228.46 167.187 C 228.46 166.711 228.426 166.255 228.39 165.801 L 233.483 165.801 L 233.483 165.799 Z  M 212.09 152.633 L 212.09 148.701 L 214.844 148.701 L 214.844 152.647 C 214.358 152.603 213.872 152.577 213.385 152.577 C 212.953 152.577 212.521 152.597 212.09 152.633 Z  M 204.569 155.233 L 202.48 151.335 L 204.907 150.033 L 206.99 153.917 C 206.15 154.28 205.339 154.722 204.569 155.233 Z  M 225.838 158.719 L 229.74 155.918 L 231.345 158.158 L 227.219 161.118 C 226.835 160.254 226.369 159.456 225.838 158.719 Z  M 219.791 153.919 L 221.876 150.033 L 224.303 151.335 L 222.212 155.235 C 221.444 154.724 220.632 154.284 219.791 153.919 Z  M 199.562 161.118 L 195.436 158.16 L 197.041 155.92 L 200.943 158.719 C 200.412 159.454 199.948 160.252 199.562 161.118 Z  M 227.102 173.621 L 231.832 175.537 L 230.799 178.091 L 225.927 176.118 C 226.349 175.32 226.746 174.487 227.102 173.621 Z  M 200.766 175.941 L 196.032 178.071 L 194.903 175.557 L 199.605 173.444 C 199.952 174.314 200.35 175.142 200.766 175.941 Z  M 198.399 168.556 L 193.3 168.556 L 193.3 165.799 L 198.393 165.799 C 198.357 166.253 198.323 166.711 198.323 167.187 C 198.323 167.655 198.359 168.107 198.399 168.556 Z " fill="rgb(255,255,255)"/><g transform="matrix(0.422,0,0,0.422,-89,6.772)"><text transform="matrix(1,0,0,1,294.521,48)" style="font-family:'Quicksand';font-weight:700;font-size:48px;font-style:normal;font-variant-ligatures:none;fill:#7faedb;stroke:none;">ESCUELA TÉCNICA SUPERIOR </text><text transform="matrix(1,0,0,1,302.105,108)" style="font-family:'Quicksand';font-weight:700;font-size:48px;font-style:normal;font-variant-ligatures:none;fill:#7faedb;stroke:none;">DE INGENIERÍA INFORMÁTICA</text></g><g transform="matrix(0.334,0,0,0.334,2.838,234.106)"><text transform="matrix(1,0,0,1,63.511,71.232)" style="font-family:'Paytone One';font-weight:400;font-size:64px;font-style:normal;font-variant-ligatures:none;fill:#000000;stroke:none;">XX New ambitious business </text><text transform="matrix(1,0,0,1,404.023,160.576)" style="font-family:'Paytone One';font-weight:400;font-size:64px;font-style:normal;font-variant-ligatures:none;fill:#000000;stroke:none;">ideas </text><text transform="matrix(1,0,0,1,203.927,249.92)" style="font-family:'Paytone One';font-weight:400;font-size:64px;font-style:normal;font-variant-ligatures:none;fill:#000000;stroke:none;">from our Software </text><text transform="matrix(1,0,0,1,150.871,339.264)" style="font-family:'Paytone One';font-weight:400;font-size:64px;font-style:normal;font-variant-ligatures:none;fill:#000000;stroke:none;">Engineering students</text></g></g></svg>