<?xml version="1.0" standalone="no"?><!-- Generator: Gravit.io --><svg xmlns="http://www.w3.org/2000/svg" xmlns:xlink="http://www.w3.org/1999/xlink" style="isolation:isolate" viewBox="0 0 391.852 607.279" width="391.852" height="607.279"><defs><clipPath id="_clipPath_73UvADxmlxpaiDJJNyQv5Op5lZuG907v"><rect width="391.852" height="607.279"/></clipPath></defs><g clip-path="url(#_clipPath_73UvADxmlxpaiDJJNyQv5Op5lZuG907v)"><g><rect x="0" y="0" width="391.852" height="289.338" transform="matrix(1,0,0,1,0,0)" fill="rgb(117,181,240)"/></g><rect x="0" y="289.338" width="391.852" height="317.941" transform="matrix(1,0,0,1,0,0)" fill="rgb(117,181,240)"/><g transform="matrix(0.382,0,0,0.382,99.491,18.439)"><text transform="matrix(1,0,0,1,0.22,36)" style="font-family:'Quicksand';font-weight:400;font-size:36px;font-style:normal;font-variant-ligatures:none;fill:#000000;stroke:none;">ESCUELA TÉCNICA SUPERIOR </text><text transform="matrix(1,0,0,1,3.352,81)" style="font-family:'Quicksand';font-weight:400;font-size:36px;font-style:normal;font-variant-ligatures:none;fill:#000000;stroke:none;">DE INGENIERÍA INFORMÁTICA</text></g><g transform="matrix(0.382,0,0,0.382,100.722,417.653)"><text transform="matrix(1,0,0,1,95.54,71.232)" style="font-family:'Paytone One';font-weight:400;font-size:64px;font-style:normal;font-variant-ligatures:none;fill:#fee35b;stroke:none;">June XX</text><text transform="matrix(1,0,0,1,12.052,160.576)" style="font-family:'Paytone One';font-weight:400;font-size:64px;font-style:normal;font-variant-ligatures:none;fill:#fee35b;stroke:none;">XX:XX - XX:XX</text><text transform="matrix(1,0,0,1,12.052,249.92)" style="font-family:'Paytone One';font-weight:400;font-size:64px;font-style:normal;font-variant-ligatures:none;fill:#fee35b;stroke:none;">XX:XX - XX:XX</text></g><g transform="matrix(0.382,0,0,0.382,149.99,513.305)"><text transform="matrix(1,0,0,1,0,126)" style="font-family:'Quicksand';font-weight:400;font-size:36px;font-style:normal;font-variant-ligatures:none;fill:#000000;stroke:none;">ETSII Assembly Hall</text><text transform="matrix(1,0,0,1,0,171)" style="font-family:'Quicksand';font-weight:400;font-size:36px;font-style:normal;font-variant-ligatures:none;fill:#000000;stroke:none;">Av. Reina Mercedes s/n, 41012 Seville.</text><text transform="matrix(1,0,0,1,0,216)" style="font-family:'Quicksand';font-weight:400;font-size:36px;font-style:normal;font-variant-ligatures:none;fill:#000000;stroke:none;">contact@email.com</text></g><g style="mix-blend-mode:normal;" opacity="0.31"><path d="M 85.102 9.273 L 306.751 9.273 C 309.138 9.273 311.076 11.211 311.076 13.598 L 311.076 62.618 C 311.076 65.005 309.138 66.943 306.751 66.943 L 85.102 66.943 C 82.715 66.943 80.777 65.005 80.777 62.618 L 80.777 13.598 C 80.777 11.211 82.715 9.273 85.102 9.273 Z" style="stroke:none;fill:#EBEBEB;stroke-miterlimit:10;"/><path d="M 85.102 9.273 L 306.751 9.273 C 309.138 9.273 311.076 11.211 311.076 13.598 L 311.076 62.618 C 311.076 65.005 309.138 66.943 306.751 66.943 L 85.102 66.943 C 82.715 66.943 80.777 65.005 80.777 62.618 L 80.777 13.598 C 80.777 11.211 82.715 9.273 85.102 9.273 Z" style="fill:none;stroke:#000000;stroke-width:7;stroke-linecap:square;stroke-miterlimit:2;"/></g><g transform="matrix(0.684,0,0,0.684,0.516,0)"><text transform="matrix(1,0,0,1,14.544,180.648)" style="font-family:'Paytone One';font-weight:400;font-size:72px;font-style:normal;fill:#fee35b;stroke:none;">ISPP DAYS 2019</text><text transform="matrix(1,0,0,1,40.176,442.116)" style="font-family:'Paytone One';font-weight:400;font-size:36px;font-style:normal;fill:#fee35b;stroke:none;">XX New ambitious business </text><text transform="matrix(1,0,0,1,231.714,492.372)" style="font-family:'Paytone One';font-weight:400;font-size:36px;font-style:normal;fill:#fee35b;stroke:none;">ideas </text><text transform="matrix(1,0,0,1,1.782,542.628)" style="font-family:'Paytone One';font-weight:400;font-size:36px;font-style:normal;fill:#fee35b;stroke:none;">from our Software Engineering </text><text transform="matrix(1,0,0,1,206.694,592.884)" style="font-family:'Paytone One';font-weight:400;font-size:36px;font-style:normal;fill:#fee35b;stroke:none;">students</text></g><path d=" M 308.658 243.201 L 287.214 243.201 C 285.734 243.201 284.533 244.402 284.533 245.882 C 284.533 247.361 285.734 248.562 287.214 248.562 L 308.658 248.562 C 310.138 248.562 311.339 247.361 311.339 245.882 C 311.339 244.402 310.138 243.201 308.658 243.201 Z  M 308.658 253.923 L 287.214 253.923 C 285.734 253.923 284.533 255.124 284.533 256.604 C 284.533 258.084 285.734 259.284 287.214 259.284 L 308.658 259.284 C 310.138 259.284 311.339 258.084 311.339 256.604 C 311.339 255.124 310.138 253.923 308.658 253.923 Z  M 309.998 264.646 L 285.873 264.646 L 292.242 268.838 C 293.068 269.578 294.28 270.007 295.539 270.007 L 300.338 270.007 C 301.592 270.007 302.809 269.578 303.635 268.838 L 309.998 264.646 Z  M 330.102 190.668 C 330.102 209.802 312.872 222.743 312.872 237.84 L 302.209 237.84 C 302.193 227.879 306.873 219.672 311.435 211.748 C 315.515 204.644 319.38 197.932 319.38 190.668 C 319.38 176.772 308.256 170.446 297.92 170.446 C 287.6 170.446 276.492 176.772 276.492 190.668 C 276.492 197.932 280.357 204.644 284.437 211.748 C 288.999 219.672 293.685 227.879 293.658 237.84 L 283 237.84 C 283 222.743 265.769 209.802 265.769 190.668 C 265.769 170.709 281.842 159.724 297.92 159.724 C 314.008 159.724 330.102 170.72 330.102 190.668 Z  M 351.547 186.964 L 351.547 194.319 L 337.94 194.319 C 338.047 193.123 338.144 191.917 338.144 190.668 C 338.144 189.398 338.053 188.181 337.956 186.969 L 351.547 186.969 L 351.547 186.964 Z  M 294.462 151.832 L 294.462 141.341 L 301.812 141.341 L 301.812 151.87 C 300.515 151.752 299.217 151.682 297.92 151.682 C 296.767 151.682 295.615 151.736 294.462 151.832 Z  M 274.395 158.77 L 268.82 148.369 L 275.296 144.895 L 280.855 155.258 C 278.615 156.229 276.449 157.408 274.395 158.77 Z  M 331.148 168.071 L 341.559 160.598 L 345.842 166.575 L 334.831 174.472 C 333.807 172.167 332.563 170.039 331.148 168.071 Z  M 315.011 155.264 L 320.576 144.895 L 327.052 148.369 L 321.471 158.775 C 319.423 157.413 317.257 156.239 315.011 155.264 Z  M 261.036 174.472 L 250.024 166.581 L 254.307 160.603 L 264.719 168.071 C 263.303 170.033 262.065 172.162 261.036 174.472 Z  M 334.52 207.834 L 347.14 212.949 L 344.384 219.763 L 331.384 214.498 C 332.509 212.37 333.571 210.145 334.52 207.834 Z  M 264.247 214.026 L 251.616 219.709 L 248.603 213.002 L 261.148 207.362 C 262.076 209.684 263.137 211.893 264.247 214.026 Z  M 257.932 194.319 L 244.325 194.319 L 244.325 186.964 L 257.915 186.964 C 257.819 188.175 257.728 189.398 257.728 190.668 C 257.728 191.917 257.824 193.123 257.932 194.319 Z " fill="rgb(0,0,0)"/><path d=" M 143.985 176.834 L 35.854 176.834 C 35.327 176.834 34.914 177.248 34.914 177.774 L 34.914 247.832 C 34.914 248.358 35.327 248.771 35.854 248.771 L 144.022 248.771 C 144.549 248.771 144.962 248.358 144.962 247.832 L 144.962 177.774 C 144.924 177.285 144.511 176.834 143.985 176.834 Z  M 143.045 246.892 L 36.793 246.892 L 36.793 178.713 L 143.045 178.713 L 143.045 246.892 Z  M 169.392 252.492 L 157.139 252.492 L 157.139 170.783 C 157.139 169.468 156.087 168.415 154.772 168.415 L 25.029 168.415 C 23.714 168.415 22.661 169.468 22.661 170.783 L 22.661 252.492 L 10.409 252.492 C 9.093 252.492 8.041 253.545 8.041 254.86 L 8.041 267.639 C 8.041 268.954 9.093 270.007 10.409 270.007 L 169.392 270.007 C 170.707 270.007 171.76 268.954 171.76 267.639 L 171.76 254.86 C 171.76 253.545 170.707 252.492 169.392 252.492 L 169.392 252.492 Z  M 27.36 173.151 L 152.441 173.151 L 152.441 252.53 L 27.36 252.53 L 27.36 173.151 Z  M 167.062 265.271 L 12.777 265.271 L 12.777 257.19 L 167.062 257.19 L 167.062 265.271 Z  M 144.774 259.37 L 142.181 259.37 C 141.842 259.37 141.617 259.633 141.617 259.934 L 141.617 262.527 C 141.617 262.866 141.88 263.091 142.181 263.091 L 144.774 263.091 C 145.112 263.091 145.338 262.828 145.338 262.527 L 145.338 259.934 C 145.338 259.633 145.075 259.37 144.774 259.37 Z  M 154.245 259.37 L 151.652 259.37 C 151.314 259.37 151.088 259.633 151.088 259.934 L 151.088 262.527 C 151.088 262.866 151.351 263.091 151.652 263.091 L 154.245 263.091 C 154.584 263.091 154.809 262.828 154.809 262.527 L 154.809 259.934 C 154.809 259.633 154.546 259.37 154.245 259.37 Z  M 135.378 259.37 L 105.536 259.37 C 105.197 259.37 104.972 259.633 104.972 259.934 L 104.972 262.527 C 104.972 262.866 105.235 263.091 105.536 263.091 L 135.378 263.091 C 135.716 263.091 135.942 262.828 135.942 262.527 L 135.942 259.934 C 135.942 259.633 135.679 259.37 135.378 259.37 L 135.378 259.37 Z " fill="rgb(60,53,51)"/></g></svg>